<?xml version="1.0" encoding="utf-8"?>
<!-- Generator: Adobe Illustrator 21.0.0, SVG Export Plug-In . SVG Version: 6.00 Build 0)  -->
<svg version="1.1" id="Layer_1" xmlns="http://www.w3.org/2000/svg" xmlns:xlink="http://www.w3.org/1999/xlink" x="0px" y="0px"
	 viewBox="0 0 915.1 384" style="enable-background:new 0 0 915.1 384;" xml:space="preserve">
<style type="text/css">
	.st0{fill:url(#SVGID_1_);}
	.st1{fill:url(#SVGID_2_);}
	.st2{fill:url(#SVGID_3_);}
	.st3{fill:url(#SVGID_4_);}
	.st4{fill:#F26101;}
	.st5{fill:#1841A5;}
</style>
<title>Asset 1</title>
<g id="Layer_2">
	<g id="Layer_1-2">
		
			<linearGradient id="SVGID_1_" gradientUnits="userSpaceOnUse" x1="336.02" y1="76" x2="336.02" y2="333.03" gradientTransform="matrix(1 0 0 -1 0 384)">
			<stop  offset="0" style="stop-color:#285AC7"/>
			<stop  offset="1" style="stop-color:#1841A5"/>
		</linearGradient>
		<path class="st0" d="M221.9,73.8h114.3c41.4,0,67.8,10.4,84.2,26.7c14,14,21.4,31.4,21.4,55.5v0.7c0,34.1-17.7,57.8-46.1,71.5
			l54.5,79.5h-89.3l-44.1-66.9h-16.7v66.9h-78.2L221.9,73.8z M333.9,185.1c18.7,0,30.1-8.4,30.1-22.7v-0.7c0-15-11.7-22.4-29.8-22.4
			h-34.1v45.8H333.9z"/>
		
			<linearGradient id="SVGID_2_" gradientUnits="userSpaceOnUse" x1="577.1349" y1="76" x2="577.1349" y2="333.03" gradientTransform="matrix(1 0 0 -1 0 384)">
			<stop  offset="0" style="stop-color:#285AC7"/>
			<stop  offset="1" style="stop-color:#1841A5"/>
		</linearGradient>
		<path class="st1" d="M461.5,202.8v-129H541v128c0,29.1,15,41.4,36.1,41.4s36.1-11.4,36.1-39.8V73.8h79.5v127.3
			c0,79.9-46.5,111.3-116.3,111.3S461.5,280.3,461.5,202.8"/>
		
			<linearGradient id="SVGID_3_" gradientUnits="userSpaceOnUse" x1="814.49" y1="76" x2="814.49" y2="333.03" gradientTransform="matrix(1 0 0 -1 0 384)">
			<stop  offset="0" style="stop-color:#285AC7"/>
			<stop  offset="1" style="stop-color:#1841A5"/>
		</linearGradient>
		<polygon class="st2" points="713.9,73.8 913.4,73.8 913.4,137.9 790.8,137.9 790.8,161.7 905.1,161.7 905.1,218.1 790.8,218.1 
			790.8,243.6 915.1,243.6 915.1,307.7 713.9,307.7 		"/>
		
			<linearGradient id="SVGID_4_" gradientUnits="userSpaceOnUse" x1="107.955" y1="76" x2="107.955" y2="333.03" gradientTransform="matrix(1 0 0 -1 0 384)">
			<stop  offset="0" style="stop-color:#285AC7"/>
			<stop  offset="1" style="stop-color:#1841A5"/>
		</linearGradient>
		<polygon class="st3" points="68.8,139.9 0,139.9 0,73.8 215.9,73.8 215.9,139.9 147.1,139.9 147.1,307.7 68.8,307.7 		"/>
		<polygon class="st4" points="292.2,1.2 260.4,2.4 272.4,14.4 147.1,139.9 221.6,139.9 309.7,51.7 321.5,63.5 322.7,31.7 323.9,0 
					"/>
		<g>
			<path class="st5" d="M211,341.7c9,0,14.1,4.4,14.1,12.2c0,8.1-5.2,12.7-14.1,12.7h-8.2v10.8h-6v-35.7H211z M202.8,361.2h8
				c5.5,0,8.6-2.3,8.6-7.2c0-4.7-3.1-6.9-8.6-6.9h-8V361.2z"/>
			<path class="st5" d="M272.7,366.5c-0.5,0.1-1.1,0.1-1.6,0.1h-8.5v10.8h-6v-35.7h14.5c9.1,0,14.4,4.4,14.4,12.2
				c0,5.7-2.7,9.7-7.4,11.6l8,11.9h-6.8L272.7,366.5z M271.1,361.2c5.5,0,8.7-2.3,8.7-7.2c0-4.7-3.2-6.9-8.7-6.9h-8.5v14.1H271.1z"
				/>
			<path class="st5" d="M353.9,359.5c0,10.2-8.3,18.1-18.9,18.1s-18.9-7.9-18.9-18.1c0-10.3,8.3-18,18.9-18S353.9,349.3,353.9,359.5
				z M322.2,359.5c0,7.1,5.9,12.7,12.9,12.7s12.7-5.6,12.7-12.7c0-7.1-5.7-12.6-12.7-12.6C328,346.9,322.2,352.4,322.2,359.5z"/>
			<path class="st5" d="M418,377.3l-0.1-26.7l-11.3,22.9h-3.9l-11.3-22.9v26.7h-5.7v-35.7h7.1l11.8,23.7l11.7-23.7h7.1v35.7H418z"/>
			<path class="st5" d="M493.4,359.5c0,10.2-8.3,18.1-18.9,18.1c-10.7,0-18.9-7.9-18.9-18.1c0-10.3,8.3-18,18.9-18
				C485.1,341.5,493.4,349.3,493.4,359.5z M461.7,359.5c0,7.1,5.9,12.7,12.9,12.7c7,0,12.7-5.6,12.7-12.7c0-7.1-5.7-12.6-12.7-12.6
				C467.5,346.9,461.7,352.4,461.7,359.5z"/>
			<path class="st5" d="M537.6,347.1v30.3h-6v-30.3h-11.3v-5.4H549v5.4H537.6z"/>
			<path class="st5" d="M579.6,377.3v-35.7h6v35.7H579.6z"/>
			<path class="st5" d="M655.4,359.5c0,10.2-8.3,18.1-18.9,18.1c-10.7,0-18.9-7.9-18.9-18.1c0-10.3,8.3-18,18.9-18
				C647.1,341.5,655.4,349.3,655.4,359.5z M623.7,359.5c0,7.1,5.9,12.7,12.9,12.7s12.7-5.6,12.7-12.7c0-7.1-5.7-12.6-12.7-12.6
				C629.5,346.9,623.7,352.4,623.7,359.5z"/>
			<path class="st5" d="M712.4,377.3l-19-25.6v25.6h-6v-35.7h5.9l19.1,25.7v-25.7h5.9v35.7H712.4z"/>
		</g>
	</g>
</g>
</svg>
