<?xml version="1.0" encoding="utf-8"?>
<!-- Generator: Adobe Illustrator 21.0.2, SVG Export Plug-In . SVG Version: 6.00 Build 0)  -->
<svg version="1.1" id="Layer_1" xmlns="http://www.w3.org/2000/svg" xmlns:xlink="http://www.w3.org/1999/xlink" x="0px" y="0px"
	 viewBox="0 0 817 266" style="enable-background:new 0 0 817 266;" xml:space="preserve">
<style type="text/css">
	.st0{fill:#F4B84D;}
	.st1{fill:#005EC4;}
	.st2{fill:#419EB7;}
	.st3{fill:#FFFFFF;}
	.st4{opacity:0.2;enable-background:new    ;}
	.st5{fill:#394049;}
	.st6{fill:#F0B0B7;}
	.st7{fill:#A27B5A;}
	.st8{fill:#F3C74F;}
	.st9{opacity:0.4;fill:#FFFFFF;enable-background:new    ;}
	.st10{opacity:0.1;fill:#FFFFFF;enable-background:new    ;}
	.st11{fill:url(#SVGID_1_);}
	.st12{fill:url(#SVGID_2_);}
	.st13{fill:url(#SVGID_3_);}
	.st14{fill:url(#SVGID_4_);}
	.st15{fill:url(#SVGID_5_);}
</style>
<title>Asset 1</title>
<g>
	<path class="st0" d="M56.4,210c-14.9-3-27-13.6-34.1-29.7c-2.2-4.9,0.1-10.7,5-12.9c4.9-2.2,10.7,0.1,12.9,5
		c5.7,13,14.1,17.2,20.2,18.5c7.7,1.6,14.6-1,18-4.1c3.9-3.7,10.1-3.5,13.8,0.4c3.7,3.9,3.5,10.1-0.4,13.8c-6,5.6-14.1,9-22.8,9.7
		C64.8,211.1,60.6,210.8,56.4,210z"/>
	<circle class="st1" cx="35.3" cy="133" r="22.4"/>
	<circle class="st0" cx="35.3" cy="133" r="10.5"/>
	<path class="st2" d="M166.6,187.8c27.5-27.5,27.6-72,0.1-99.4S77,44.3,50,71.3S39.7,160.6,67.2,188
		C94.6,215.4,139.1,215.3,166.6,187.8z"/>
	<path class="st3" d="M77.1,196.2c27.4,18.8,65.1,16,89.5-8.4s27.2-62.1,8.4-89.5L77.1,196.2z"/>
	<path class="st1" d="M106.2,207.7c21.4,3.2,43.9-3.4,60.4-19.9s23.1-39.1,19.9-60.4L106.2,207.7z"/>
	<path class="st4" d="M111.5,208.3c19.7,1.5,40-5.3,55.1-20.5c27.5-27.5,27.6-72,0.1-99.4C148,69.7,112.9,56,84,57.8
		c26.5,1.5,55.6,14.1,72.2,30.6c27.4,27.4,27.4,71.9-0.1,99.4C143.6,200.3,127.7,207.1,111.5,208.3z"/>
	<g>
		<path class="st5" d="M124.2,92.6l-1.4-1.4c-1.5-1.5-1.5-3.9,0-5.3c1.5-1.5,3.9-1.5,5.3,0l1.4,1.4c1.5,1.5,1.5,3.9,0,5.3
			c-0.7,0.7-1.7,1.1-2.7,1.1C125.9,93.7,124.9,93.4,124.2,92.6z"/>
		<path class="st5" d="M66.1,150.7l-1.4-1.4c-1.5-1.5-1.5-3.9,0-5.3c1.5-1.5,3.9-1.5,5.3,0l1.4,1.4c1.5,1.5,1.5,3.9,0,5.3
			c-0.7,0.7-1.7,1.1-2.7,1.1S66.8,151.5,66.1,150.7z"/>
		<path class="st5" d="M87.5,133.6c-1.5-1.5-1.5-3.9,0-5.3c1.5-1.5,3.9-1.5,5.3,0c1.2,1.2,3.2,1.2,4.4,0c0.6-0.6,0.9-1.4,0.9-2.2
			c0-0.8-0.3-1.6-0.9-2.2c-0.7-0.7-1.1-1.7-1.1-2.7c0-1,0.4-1.9,1.1-2.7c1.5-1.5,3.9-1.5,5.3,0c1.2,1.2,3.2,1.2,4.4,0
			c1.2-1.2,1.2-3.2,0-4.4c-1.5-1.5-1.5-3.9,0-5.3c1.5-1.5,3.9-1.5,5.3,0c4.2,4.2,4.2,10.9,0,15.1c-1.9,1.9-4.2,2.9-6.7,3.1
			c-0.2,2.5-1.3,4.9-3.1,6.7c-2.1,2.1-4.8,3.1-7.5,3.1C92.3,136.7,89.6,135.6,87.5,133.6z"/>
	</g>
	<g>
		<path class="st6" d="M130.8,107.6c-1.5-1.5-1.5-3.9,0-5.3l8.3-8.3c1.5-1.5,3.9-1.5,5.3,0c1.5,1.5,1.5,3.9,0,5.3l-8.3,8.3
			c-0.7,0.7-1.7,1.1-2.7,1.1S131.6,108.4,130.8,107.6z"/>
		<path class="st6" d="M72.8,165.7c-1.5-1.5-1.5-3.9,0-5.3l8.3-8.3c1.5-1.5,3.9-1.5,5.3,0s1.5,3.9,0,5.3l-8.3,8.3
			c-0.7,0.7-1.7,1.1-2.7,1.1S73.5,166.4,72.8,165.7z"/>
	</g>
	<path class="st7" d="M246.4,239.9V26.3c0-1.1-0.9-2-2-2.1L148.2,16c-2.9-0.2-5.3,2-5.3,4.9v224.4c0,2.9,2.5,5.1,5.3,4.9l96.2-8.1
		C245.5,241.9,246.4,241,246.4,239.9z"/>
	<circle class="st4" cx="164.7" cy="142.1" r="9.2"/>
	<circle class="st8" cx="161.3" cy="137.8" r="9.2"/>
	<g>
		<path class="st9" d="M152.1,137.8c0,1,0.2,1.9,0.4,2.8c1.1,0.6,2.3,1,3.6,1c4,0,7.3-3.2,7.3-7.3c0-2.3-1.1-4.4-2.8-5.7
			C155.9,129,152.1,133,152.1,137.8z"/>
		<path class="st10" d="M142.9,20.9V75c5,2.5,10.7,3.9,16.7,3.9c20.7,0,37.5-16.8,37.5-37.5c0-8.1-2.6-15.7-7-21.8L148.2,16
			C145.4,15.8,142.9,18,142.9,20.9z"/>
	</g>
</g>
<g>
	<path d="M300.4,192.5c2.3,1.8,3.4,4.2,3.4,7.3c0,3.1-1.1,5.6-3.4,7.4c-2.3,1.8-5.5,2.7-9.6,2.7h-8.5v10.3h-8.4v-30.4h16.9
		C294.9,189.8,298.1,190.7,300.4,192.5z M293.7,203.1c1-0.8,1.5-1.9,1.5-3.3s-0.5-2.5-1.5-3.2c-1-0.8-2.5-1.1-4.4-1.1h-7v8.8h7
		C291.2,204.2,292.7,203.8,293.7,203.1z"/>
	<path d="M347.1,209.5h-6.4v10.7h-8.4v-30.4h17.7c4.1,0,7.3,0.9,9.6,2.6c2.3,1.7,3.4,4.1,3.4,7.2c0,2.2-0.6,4.1-1.9,5.7
		s-3,2.7-5.4,3.4l8.1,11.4h-9.7L347.1,209.5z M348.7,203.9c1.9,0,3.4-0.4,4.4-1.1c1-0.8,1.5-1.8,1.5-3.1s-0.5-2.4-1.5-3.1
		c-1-0.7-2.5-1.1-4.4-1.1h-7.9v8.5H348.7z"/>
	<path d="M417.7,191c2.7,1.3,4.7,3.1,6.2,5.5c1.5,2.4,2.2,5.2,2.2,8.5c0,3.3-0.7,6.1-2.2,8.5c-1.5,2.4-3.6,4.2-6.2,5.5
		c-2.7,1.3-5.7,1.9-9.1,1.9c-3.5,0-6.5-0.6-9.2-1.9c-2.7-1.3-4.7-3.1-6.2-5.5c-1.5-2.4-2.2-5.2-2.2-8.5c0-3.3,0.7-6.1,2.2-8.5
		s3.6-4.2,6.2-5.5c2.7-1.3,5.7-1.9,9.2-1.9C412,189.1,415.1,189.8,417.7,191z M415.2,212.6c1.7-1.7,2.5-4.2,2.5-7.6
		c0-3.4-0.8-5.9-2.5-7.6s-3.9-2.5-6.6-2.5c-2.7,0-4.9,0.8-6.6,2.5c-1.7,1.7-2.5,4.2-2.5,7.6c0,3.4,0.8,5.9,2.5,7.6
		c1.7,1.7,3.9,2.5,6.6,2.5C411.3,215.1,413.5,214.2,415.2,212.6z"/>
	<path d="M493.3,220.2h-7.9v-21.9h-0.2l-8,21.9h-6.1l-7.9-21.9h-0.2v21.9h-7.7v-30.4h12.3l6.6,19.6h0.2l6.6-19.6h12.3V220.2z"/>
	<path d="M549.3,191c2.7,1.3,4.7,3.1,6.2,5.5c1.5,2.4,2.2,5.2,2.2,8.5c0,3.3-0.7,6.1-2.2,8.5c-1.5,2.4-3.6,4.2-6.2,5.5
		c-2.7,1.3-5.7,1.9-9.1,1.9c-3.5,0-6.5-0.6-9.2-1.9c-2.7-1.3-4.7-3.1-6.2-5.5c-1.5-2.4-2.2-5.2-2.2-8.5c0-3.3,0.7-6.1,2.2-8.5
		s3.6-4.2,6.2-5.5c2.7-1.3,5.7-1.9,9.2-1.9C543.6,189.1,546.6,189.8,549.3,191z M546.7,212.6c1.7-1.7,2.5-4.2,2.5-7.6
		c0-3.4-0.8-5.9-2.5-7.6s-3.9-2.5-6.6-2.5c-2.7,0-4.9,0.8-6.6,2.5c-1.7,1.7-2.5,4.2-2.5,7.6c0,3.4,0.8,5.9,2.5,7.6
		c1.7,1.7,3.9,2.5,6.6,2.5C542.8,215.1,545,214.2,546.7,212.6z"/>
	<path d="M603.5,195.8v24.3h-8.4v-24.3H584v-6h30.8v6H603.5z"/>
	<path d="M643.4,189.8h8.4v30.4h-8.4V189.8z"/>
	<path d="M707.8,191c2.7,1.3,4.7,3.1,6.2,5.5c1.5,2.4,2.2,5.2,2.2,8.5c0,3.3-0.7,6.1-2.2,8.5c-1.5,2.4-3.6,4.2-6.2,5.5
		c-2.7,1.3-5.7,1.9-9.1,1.9c-3.5,0-6.5-0.6-9.2-1.9c-2.7-1.3-4.7-3.1-6.2-5.5c-1.5-2.4-2.2-5.2-2.2-8.5c0-3.3,0.7-6.1,2.2-8.5
		s3.6-4.2,6.2-5.5c2.7-1.3,5.7-1.9,9.2-1.9C702.1,189.1,705.2,189.8,707.8,191z M705.3,212.6c1.7-1.7,2.5-4.2,2.5-7.6
		c0-3.4-0.8-5.9-2.5-7.6s-3.9-2.5-6.6-2.5c-2.7,0-4.9,0.8-6.6,2.5c-1.7,1.7-2.5,4.2-2.5,7.6c0,3.4,0.8,5.9,2.5,7.6
		c1.7,1.7,3.9,2.5,6.6,2.5C701.4,215.1,703.6,214.2,705.3,212.6z"/>
	<path d="M767.6,220.2l-14.2-20.8h-0.2v20.8h-7.7v-30.4h9.6l14,20.4h0.2v-20.4h7.7v30.4H767.6z"/>
</g>
<g>
	<linearGradient id="SVGID_1_" gradientUnits="userSpaceOnUse" x1="303.0955" y1="147.5694" x2="303.0955" y2="48.5648">
		<stop  offset="0" style="stop-color:#285AC7"/>
		<stop  offset="1" style="stop-color:#1841A5"/>
	</linearGradient>
	<path class="st11" d="M300.4,125.8h32.3v21.8h-59.2v-99h26.9V125.8z"/>
	<linearGradient id="SVGID_2_" gradientUnits="userSpaceOnUse" x1="393.2995" y1="147.5694" x2="393.2995" y2="48.5648">
		<stop  offset="0" style="stop-color:#285AC7"/>
		<stop  offset="1" style="stop-color:#1841A5"/>
	</linearGradient>
	<path class="st12" d="M374.9,130.4l-7.1,17.2h-28.6l39.8-99h29.4l39,99h-28.7l-6.7-17.2H374.9z M393.7,79.2h-0.3l-11.1,31.5h22.4
		L393.7,79.2z"/>
	<linearGradient id="SVGID_3_" gradientUnits="userSpaceOnUse" x1="514.5677" y1="147.5694" x2="514.5677" y2="48.5648">
		<stop  offset="0" style="stop-color:#285AC7"/>
		<stop  offset="1" style="stop-color:#1841A5"/>
	</linearGradient>
	<path class="st13" d="M467.2,48.6h26.5l21,52.9L537,48.6h26.8l15.7,99h-26.9l-7.6-57h-0.3l-24.9,57h-10.7l-23.8-57h-0.3l-8.7,57
		h-26.8L467.2,48.6z"/>
	<linearGradient id="SVGID_4_" gradientUnits="userSpaceOnUse" x1="630.407" y1="147.5694" x2="630.407" y2="48.5648">
		<stop  offset="0" style="stop-color:#285AC7"/>
		<stop  offset="1" style="stop-color:#1841A5"/>
	</linearGradient>
	<path class="st14" d="M590.9,147.6v-99h38.5c4.6,0,8.8,0.5,12.6,1.4c3.8,0.9,7.1,2.4,9.8,4.4c2.7,2,4.8,4.7,6.3,7.9
		c1.5,3.3,2.2,7.3,2.2,12c0,4.5-0.8,8.4-2.5,11.9c-1.7,3.5-4.7,6.3-8.9,8.3v0.3c7.4,1,12.8,3.7,16.1,8.1c3.3,4.5,5,10.2,5,17.1
		c0,5.2-1.1,9.5-3.2,13.1c-2.2,3.5-5,6.4-8.5,8.5c-3.5,2.1-7.5,3.7-12,4.6c-4.5,0.9-9.1,1.4-13.9,1.4H590.9z M617.8,87.4h3
		c1.7,0,3.5-0.1,5.2-0.3c1.7-0.2,3.3-0.7,4.7-1.3c1.4-0.7,2.5-1.6,3.4-2.9c0.9-1.3,1.3-3,1.3-5.1c0-2.3-0.5-4-1.4-5.3
		c-1-1.3-2.2-2.2-3.7-2.9c-1.5-0.7-3.2-1-5-1.2c-1.8-0.1-3.7-0.2-5.5-0.2h-1.9V87.4z M617.8,127.9h3.4c2,0,4.3,0,6.7-0.1
		c2.5-0.1,4.8-0.4,7-1s4-1.6,5.5-3.1c1.5-1.4,2.2-3.5,2.2-6.2c0-3-0.7-5.2-2.2-6.7c-1.5-1.5-3.3-2.5-5.6-3.2
		c-2.2-0.6-4.7-0.9-7.2-0.9c-2.6,0-4.9,0-7.1,0h-2.7V127.9z"/>
	<linearGradient id="SVGID_5_" gradientUnits="userSpaceOnUse" x1="736.0101" y1="150.8516" x2="736.0101" y2="45.2826">
		<stop  offset="0" style="stop-color:#285AC7"/>
		<stop  offset="1" style="stop-color:#1841A5"/>
	</linearGradient>
	<path class="st15" d="M736,45.3c7.4,0,14.6,1.2,21.5,3.7c6.9,2.5,13,6,18.3,10.5c5.3,4.5,9.6,9.9,12.7,16.1
		c3.2,6.3,4.7,13.1,4.7,20.6c0,8.1-1.4,15.4-4.3,22.1c-2.8,6.7-6.8,12.4-11.9,17.3c-5.1,4.9-11.1,8.6-18.1,11.3c-7,2.7-14.7,4-23,4
		c-8.3,0-16-1.3-23-4c-7-2.7-13.1-6.4-18.1-11.3c-5.1-4.9-9-10.6-11.9-17.3c-2.8-6.7-4.3-14-4.3-22.1c0-7.4,1.6-14.3,4.7-20.6
		c3.2-6.3,7.4-11.6,12.7-16.1c5.3-4.5,11.4-8,18.3-10.5C721.4,46.5,728.6,45.3,736,45.3z M736,70.2c-4,0-7.8,0.7-11.3,2.2
		c-3.5,1.4-6.6,3.4-9.3,5.8c-2.7,2.4-4.8,5.2-6.3,8.3c-1.6,3.2-2.3,6.4-2.3,9.8c0,4.3,0.8,8.2,2.3,11.8c1.6,3.6,3.7,6.7,6.3,9.3
		c2.7,2.6,5.7,4.7,9.3,6.2c3.5,1.5,7.3,2.2,11.3,2.2c4,0,7.8-0.7,11.3-2.2c3.5-1.5,6.6-3.5,9.3-6.2c2.7-2.6,4.8-5.7,6.3-9.3
		c1.6-3.6,2.3-7.5,2.3-11.8c0-3.4-0.8-6.7-2.3-9.8c-1.6-3.2-3.7-5.9-6.3-8.3c-2.7-2.4-5.7-4.3-9.3-5.8C743.8,71,740,70.2,736,70.2z"
		/>
</g>
</svg>
