<svg xmlns="http://www.w3.org/2000/svg" xmlns:xlink="http://www.w3.org/1999/xlink" viewBox="0 0 915.09 384.02"><defs><style>.cls-1{fill:url(#linear-gradient);}.cls-2{fill:url(#linear-gradient-2);}.cls-3{fill:url(#linear-gradient-3);}.cls-4{fill:url(#linear-gradient-4);}.cls-5{fill:#f26101;}.cls-6{fill:#1841a5;}</style><linearGradient id="linear-gradient" x1="336.01" y1="308" x2="336.01" y2="50.97" gradientUnits="userSpaceOnUse"><stop offset="0" stop-color="#285ac7"/><stop offset="1" stop-color="#1841a5"/></linearGradient><linearGradient id="linear-gradient-2" x1="577.15" y1="308" x2="577.15" y2="50.97" xlink:href="#linear-gradient"/><linearGradient id="linear-gradient-3" x1="814.49" y1="308" x2="814.49" y2="50.97" xlink:href="#linear-gradient"/><linearGradient id="linear-gradient-4" x1="107.95" y1="308" x2="107.95" y2="50.97" xlink:href="#linear-gradient"/></defs><title>Asset 1</title><g id="Layer_2" data-name="Layer 2"><g id="Layer_1-2" data-name="Layer 1"><path class="cls-1" d="M221.88,73.77h114.3c41.44,0,67.84,10.36,84.23,26.74,14,14,21.39,31.42,21.39,55.48v.67c0,34.09-17.72,57.82-46.12,71.52l54.48,79.55H360.91L316.8,240.87H300.08v66.85h-78.2Zm112,111.3c18.71,0,30.08-8.36,30.08-22.73v-.67c0-15-11.7-22.39-29.75-22.39H300.08v45.79Z"/><path class="cls-2" d="M461.51,202.77v-129h79.54v128c0,29.07,15,41.44,36.1,41.44s36.09-11.36,36.09-39.77V73.77h79.55V201.11c0,79.88-46.46,111.29-116.31,111.29s-115-32.08-115-109.63"/><polygon class="cls-3" points="713.89 73.77 913.41 73.77 913.41 137.94 790.76 137.94 790.76 161.67 905.06 161.67 905.06 218.15 790.76 218.15 790.76 243.55 915.09 243.55 915.09 307.72 713.89 307.72 713.89 73.77"/><polygon class="cls-4" points="68.85 139.95 0 139.95 0 73.77 215.91 73.77 215.91 139.95 147.06 139.95 147.06 307.72 68.85 307.72 68.85 139.95"/><polygon class="cls-5" points="292.18 1.2 260.43 2.4 272.41 14.38 147.05 139.95 221.61 139.95 309.69 51.66 321.52 63.49 322.72 31.74 323.92 0 292.18 1.2"/><path class="cls-6" d="M161.24,336.46h7.58l20.48,46.89h-8.65l-4.72-11.24h-22l-4.79,11.24h-8.38Zm11.71,28.4-8-18.62-8,18.62Z"/><polygon class="cls-6" points="223.88 336.8 258.53 336.8 258.53 344.25 232.06 344.25 232.06 356.95 255.54 356.95 255.54 364.4 232.06 364.4 232.06 383.35 223.88 383.35 223.88 336.8"/><polygon class="cls-6" points="294.09 336.8 328.75 336.8 328.75 344.25 302.27 344.25 302.27 356.95 325.75 356.95 325.75 364.4 302.27 364.4 302.27 383.35 294.09 383.35 294.09 336.8"/><rect class="cls-6" x="364.78" y="336.8" width="8.18" height="46.56"/><polygon class="cls-6" points="411.99 336.8 420.17 336.8 420.17 375.91 444.65 375.91 444.65 383.35 411.99 383.35 411.99 336.8"/><rect class="cls-6" x="480.21" y="336.8" width="8.18" height="46.56"/><path class="cls-6" d="M543.92,336.46h7.58L572,383.36h-8.65l-4.73-11.24h-22l-4.79,11.24h-8.38Zm11.71,28.4-8-18.62-8,18.62Z"/><polygon class="cls-6" points="612.01 344.38 597.25 344.38 597.25 336.8 635.02 336.8 635.02 344.38 620.26 344.38 620.26 383.35 612.01 383.35 612.01 344.38"/><polygon class="cls-6" points="670.26 336.8 704.78 336.8 704.78 344.12 678.44 344.12 678.44 356.22 701.78 356.22 701.78 363.53 678.44 363.53 678.44 376.04 705.11 376.04 705.11 383.35 670.26 383.35 670.26 336.8"/><path class="cls-6" d="M738.28,376.57l4.92-5.85c4.46,3.85,8.91,6.05,14.7,6.05,5.06,0,8.25-2.33,8.25-5.86v-.13c0-3.32-1.87-5.12-10.51-7.12-9.91-2.39-15.5-5.32-15.5-13.9v-.13c0-8,6.65-13.5,15.9-13.5A25.8,25.8,0,0,1,772.93,342l-4.39,6.18c-4.19-3.13-8.38-4.79-12.63-4.79-4.79,0-7.58,2.46-7.58,5.52V349c0,3.59,2.13,5.19,11,7.32,9.84,2.39,15,5.91,15,13.63v.13c0,8.71-6.85,13.9-16.63,13.9a28.69,28.69,0,0,1-19.42-7.45"/></g></g></svg>